Oprah.Winfrey.2010.11.24.Garth.Brooks.Returns.To.Stage.720p.x264-Nile

RELEASE INFORMATION

General
Format                           : Matroska
File size                        : 1.09 GiB
Duration                         : 42mn 15s
Overall bit rate                 : 3 694 Kbps
Encoded date                     : UTC 2011-03-10 04:10:45
Writing library                  : libebml v1.2.0 + libmatroska v1.1.0

Video
ID                               : 2
Format                           : AVC
Format/Info                      : Advanced Video Codec
Format profile                   : Baseline@L3.1
Format settings, CABAC           : No
Format settings, ReFrames        : 1 frame
Muxing mode                      : Container profile=Unknown@3.1
Codec ID                         : V_MPEG4/ISO/AVC
Duration                         : 42mn 12s
Bit rate                         : 3 365 Kbps
Width                            : 1 280 pixels
Height                           : 720 pixels
Display aspect ratio             : 16:9
Frame rate                       : 29.970 fps
Standard                         : NTSC
Resolution                       : 24 bits
Colorimetry                      : 4:2:0
Scan type                        : Progressive
Bits/(Pixel*Frame)               : 0.122
Stream size                      : 1 016 MiB (91%)

Audio
ID                               : 1
Format                           : MPEG Audio
Format version                   : Version 1
Format profile                   : Layer 3
Codec ID                         : A_MPEG/L3
Codec ID/Hint                    : MP3
Duration                         : 42mn 15s
Bit rate mode                    : Constant
Bit rate                         : 256 Kbps
Channel(s)                       : 2 channels
Sampling rate                    : 44.1 KHz
Resolution                       : 16 bits
Stream size                      : 77.4 MiB (7%)
 
http://www.oprah.com/showinfo/The-Hottest-Tickets-on-Earth-Plus-Superstar-Garth-Brooks_3